<svg width="476" height="177" viewBox="0 0 476 177" fill="none" xmlns="http://www.w3.org/2000/svg">
<g clip-path="url(#clip0_5_8)">
<path d="M21.7 48.5H12.9V85.9H0V0.799988H12.9V34.9H21.7V0.799988H34.6V86H21.7V48.5Z" fill="#777788"/>
<path d="M56.8 86.9H54.3C44 86.9 38.5 81.3 38.5 70.8V53.7H51.3V68.6C51.3 72.5 52.6 74.6 55.5 74.6C58.6 74.6 59.7 72.5 59.7 67.3V65.4C59.7 59.3 59.1 57.2 54.4 51.1L46.3 40.4C40.8 33.3 39.2 27.8 39.2 19.3V16.6C39.2 5.3 44.9 0 55.1 0H57.5C68.1 0 72.3 4.7 72.3 14.8V28.8H59.8V16.5C59.8 13.6 59.2 11.5 56.1 11.5C53 11.5 52.3 13.4 52.3 17.5V19.1C52.3 23.9 53.2 26.5 57.6 32.2L65.8 42.8C71.6 50.4 73.5 54.7 73.5 64.3V67C73.5 79.5 68.1 86.9 56.8 86.9Z" fill="#777788"/>
<path d="M106.6 0.799988V13.2H90.1V35.5H103V48.4H90.1V73H107.3V85.9H77.2V0.799988H106.6Z" fill="#777788"/>
<path d="M142.2 69.9H132.8L131.1 85.9H119.5L129.9 0.700012H145.2L156.3 85.9H143.8L142.2 69.9ZM140.8 57.2L137.4 25.7L134.1 57.2H140.8Z" fill="#777788"/>
<path d="M171.4 86H158.5V0.799988H179.5C188.1 0.799988 192.4 4.49999 192.4 14V29.1C192.4 36.2 189.1 38.9 186.8 40C189.7 41.3 192.4 43.6 192.4 49.3V79.2C192.4 82.6 193.1 84.2 193.7 85.5V86.1H180.9C180.3 85.2 179.6 83.7 179.6 79.1V53.3C179.6 49.5 178.9 47.9 174.8 47.9H171.5L171.4 86ZM171.4 35.8H174.8C178.4 35.8 179.5 33.5 179.5 29.7V17.8C179.5 14.1 178.7 12.3 174.8 12.3H171.4V35.8Z" fill="#777788"/>
<path d="M218.5 13.1V85.9H205.7V13.1H194.8V0.799988H229.4V13.2L218.5 13.1Z" fill="#777788"/>
<path d="M264 69.9H254.6L252.9 85.9H241.3L251.7 0.700012H267L278.1 85.9H265.6L264 69.9ZM262.6 57.2L259.2 25.7L255.9 57.2H262.6Z" fill="#777788"/>
<path d="M291.9 0.799988L303 46.5V0.799988H314.8V86H304.3L291.9 37V86H280.2V0.799988H291.9Z" fill="#777788"/>
<path d="M319.6 0.799988H339.5C350.6 0.799988 354 7.09999 354 17.2V69.1C354 79.5 350.1 86 339.5 86H319.7V0.799988H319.6ZM332.6 73.6H335.7C339.6 73.6 340.7 71.5 340.7 67V19C340.7 14.1 339.4 12.4 336.2 12.4H332.5V73.6H332.6Z" fill="#777788"/>
<path d="M0 90.4H19.8C30.9 90.4 34.3 96.7 34.3 106.8V158.7C34.3 169.1 30.4 175.6 19.8 175.6H0V90.4ZM12.9 163.3H16C19.9 163.3 21 161.2 21 156.7V108.7C21 103.8 19.7 102.1 16.5 102.1H12.8V163.3H12.9Z" fill="#777788"/>
<path d="M68.4 90.4V102.8H51.9V125.1H64.8V138H51.9V162.6H69.1V175.5H38.9V90.4H68.4Z" fill="#777788"/>
<path d="M89.7 176.5H87.2C76.9 176.5 71.4 170.9 71.4 160.4V143.3H84.2V158.2C84.2 162.1 85.5 164.2 88.4 164.2C91.5 164.2 92.6 162.1 92.6 156.9V155C92.6 148.9 92 146.8 87.3 140.7L79.1 130.2C73.6 123.1 72 117.6 72 109.1V106.4C72 95.1 77.7 89.8 87.9 89.8H90.3C101 89.8 105.1 94.5 105.1 104.6V118.6H92.6V106.3C92.6 103.4 92 101.3 88.9 101.3C85.8 101.3 85.1 103.2 85.1 107.3V108.9C85.1 113.7 86 116.3 90.4 122L98.6 132.6C104.4 140.2 106.3 144.5 106.3 154.1V156.8C106.4 169.1 101 176.5 89.7 176.5Z" fill="#777788"/>
<path d="M123 175.6H110.1V90.4H123V175.6Z" fill="#777788"/>
<path d="M139.8 176.8C132.2 176.8 127.4 170 127.4 161.2V107.9C127.4 98.4 131.1 89.6 143.3 89.6H145.8C159.7 89.6 161.3 98.6 161.3 108.7V117.4H148.7V107.8C148.7 104 147.8 102 144.6 102C141.9 102 140.6 104.1 140.6 107.8V157.6C140.6 161.6 142.2 163.7 144.8 163.7C148.1 163.7 149.6 161.4 149.6 158.2V136.9H143.8V123.8H161.9V175.6H154.6C154.5 175.1 153.5 170.9 152.4 167.2C151.5 170.1 147.1 176.7 140.6 176.7H139.8V176.8Z" fill="#777788"/>
<path d="M178.1 90.4L189.2 136.1V90.4H201V175.6H190.5L178.1 126.6V175.6H166.4V90.4H178.1Z" fill="#777788"/>
<path d="M234.8 176.5H232.3C222 176.5 216.5 170.9 216.5 160.4V143.3H229.3V158.2C229.3 162.1 230.6 164.2 233.5 164.2C236.6 164.2 237.7 162.1 237.7 156.9V155C237.7 148.9 237.1 146.8 232.4 140.7L224.2 130.2C218.7 123.1 217.1 117.6 217.1 109.1V106.4C217.1 95.1 222.8 89.8 233 89.8H235.4C246 89.8 250.2 94.5 250.2 104.6V118.6H237.7V106.3C237.7 103.4 237.1 101.3 234 101.3C230.9 101.3 230.2 103.2 230.2 107.3V108.9C230.2 113.7 231.1 116.3 235.5 122L243.7 132.6C249.5 140.2 251.4 144.5 251.4 154.1V156.8C251.5 169.1 246.1 176.5 234.8 176.5Z" fill="#777788"/>
<path d="M276.3 158.3V138.5H289V158.2C289 167.4 286 176.6 273.5 176.6H270.6C257.5 176.6 254.7 167.2 254.7 158.6V106.6C254.7 97.9 258.5 89.5 270.2 89.5H273.2C287.4 89.5 289 98.9 289 107.2V122.4H276.3V107.4C276.3 103.7 275.2 101.8 271.9 101.8C268.7 101.8 267.9 103.6 267.9 107.4V158C267.9 161.8 269.2 163.8 272 163.8C275.2 164.1 276.3 161.8 276.3 158.3Z" fill="#777788"/>
<path d="M314.9 138.2H306.1V175.6H293.2V90.4H306.1V124.5H314.9V90.4H327.8V175.6H314.9V138.2Z" fill="#777788"/>
<path d="M367.7 156.6C367.7 168.5 363.7 176.6 351.2 176.6H349C336.6 176.6 332.3 168.5 332.3 156.6V109.2C332.3 97.4 336.8 89.6 348.9 89.6H351.1C363.7 89.6 367.7 97.4 367.7 109.1V156.6ZM354.5 108.5C354.5 104 353 102 350 102C346.7 102 345.4 104.2 345.4 108.5V157.5C345.4 161.2 346.4 164 350.1 164C353.5 164 354.5 161.1 354.5 157.5V108.5Z" fill="#777788"/>
<path d="M407.2 156.6C407.2 168.5 403.2 176.6 390.7 176.6H388.5C376.1 176.6 371.8 168.5 371.8 156.6V109.2C371.8 97.4 376.3 89.6 388.4 89.6H390.6C403.2 89.6 407.2 97.4 407.2 109.1V156.6ZM394 108.5C394 104 392.5 102 389.5 102C386.2 102 384.9 104.2 384.9 108.5V157.5C384.9 161.2 385.9 164 389.6 164C393 164 394 161.1 394 157.5V108.5Z" fill="#777788"/>
<path d="M424.6 90.4V162.4H440.4V175.6H411.7V90.4H424.6Z" fill="#777788"/>
<path fill-rule="evenodd" clip-rule="evenodd" d="M458.5 89.5C448.9 89.5 441 97.3 441 107C441 116.6 448.8 124.5 458.5 124.5C468.2 124.5 476 116.7 476 107C475.9 97.3 468.1 89.5 458.5 89.5Z" fill="#777788"/>
<path fill-rule="evenodd" clip-rule="evenodd" d="M461.4 105.4C462.5 104.9 463.2 104.2 463.7 103.7C464.6 102.7 464.9 101.5 464.9 100.3C464.9 99.4 464.6 97.5 463 96.2C461.9 95.3 460.9 94.9 458.5 94.9H457.3H457.2H452.2V118.3H466.3V113.8C466.4 109.5 465 106.6 461.4 105.4ZM463.2 117H460.6V109.2H457.7V117H455.5V96H457.8C458.7 96 460 96.2 460.9 97.3C461.4 97.9 461.7 98.7 461.8 99.4H457.7V100.6H461.8C461.8 101.3 461.6 102.2 460.9 103.1C460.3 103.9 459.2 104.6 457.7 104.6V105.8C461.7 105.8 463.2 108.4 463.2 113.3V117Z" fill="white"/>
</g>
<defs>
<clipPath id="clip0_5_8">
<rect width="476" height="176.8" fill="white"/>
</clipPath>
</defs>
</svg>
